<svg width="38" height="38" viewBox="0 0 38 38" fill="none" xmlns="http://www.w3.org/2000/svg">
<path d="M19 23.75C21.6234 23.75 23.75 21.6234 23.75 19C23.75 16.3766 21.6234 14.25 19 14.25C16.3766 14.25 14.25 16.3766 14.25 19C14.25 21.6234 16.3766 23.75 19 23.75Z" fill="#FF0000" stroke="#FF0000" stroke-width="2" stroke-linecap="round" stroke-linejoin="round"/>
<path d="M11.4427 26.5573C10.4492 25.5655 9.66096 24.3875 9.12318 23.0907C8.5854 21.794 8.30859 20.4039 8.30859 19.0001C8.30859 17.5962 8.5854 16.2062 9.12318 14.9094C9.66096 13.6127 10.4492 12.4347 11.4427 11.4429" stroke="black" stroke-width="3" stroke-linecap="round" stroke-linejoin="round"/>
<path d="M26.5576 11.4429C27.5511 12.4347 28.3393 13.6127 28.8771 14.9094C29.4149 16.2062 29.6917 17.5962 29.6917 19.0001C29.6917 20.4039 29.4149 21.794 28.8771 23.0907C28.3393 24.3875 27.5511 25.5655 26.5576 26.5573" stroke="black" stroke-width="3" stroke-linecap="round" stroke-linejoin="round"/>
<path d="M7.24437 30.7554C5.69891 29.2126 4.47283 27.3802 3.63628 25.363C2.79973 23.3459 2.36914 21.1835 2.36914 18.9998C2.36914 16.816 2.79973 14.6537 3.63628 12.6366C4.47283 10.6194 5.69891 8.78697 7.24437 7.24414" stroke="black" stroke-width="3" stroke-linecap="round" stroke-linejoin="round"/>
<path d="M30.7559 7.24414C32.3013 8.78697 33.5274 10.6194 34.364 12.6366C35.2005 14.6537 35.6311 16.816 35.6311 18.9998C35.6311 21.1835 35.2005 23.3459 34.364 25.363C33.5274 27.3802 32.3013 29.2126 30.7559 30.7554" stroke="black" stroke-width="3" stroke-linecap="round" stroke-linejoin="round"/>
</svg>
