<svg width="30" height="30" viewBox="0 0 30 30" fill="none" xmlns="http://www.w3.org/2000/svg">
<path d="M27.1875 7.5H2.8125C2.29473 7.5 1.875 7.91973 1.875 8.4375V21.5625C1.875 22.0803 2.29473 22.5 2.8125 22.5H27.1875C27.7053 22.5 28.125 22.0803 28.125 21.5625V8.4375C28.125 7.91973 27.7053 7.5 27.1875 7.5Z" stroke="#414141" stroke-width="2" stroke-linecap="round" stroke-linejoin="round"/>
<path d="M15 18.75C17.0711 18.75 18.75 17.0711 18.75 15C18.75 12.9289 17.0711 11.25 15 11.25C12.9289 11.25 11.25 12.9289 11.25 15C11.25 17.0711 12.9289 18.75 15 18.75Z" stroke="#414141" stroke-width="2" stroke-linecap="round" stroke-linejoin="round"/>
<path d="M20.625 7.5L28.125 14.0625" stroke="#414141" stroke-width="2" stroke-linecap="round" stroke-linejoin="round"/>
<path d="M20.625 22.5L28.125 15.9375" stroke="#414141" stroke-width="2" stroke-linecap="round" stroke-linejoin="round"/>
<path d="M9.375 7.5L1.875 14.0625" stroke="#414141" stroke-width="2" stroke-linecap="round" stroke-linejoin="round"/>
<path d="M9.375 22.5L1.875 15.9375" stroke="#414141" stroke-width="2" stroke-linecap="round" stroke-linejoin="round"/>
</svg>
