<svg width="26" height="26" viewBox="0 0 26 26" fill="none" xmlns="http://www.w3.org/2000/svg">
<path d="M2.4375 6.09375H15.4375C16.2995 6.09375 17.1261 6.43616 17.7356 7.04565C18.3451 7.65515 18.6875 8.4818 18.6875 9.34375V19.0938C18.6875 19.3092 18.6019 19.5159 18.4495 19.6683C18.2972 19.8206 18.0905 19.9062 17.875 19.9062H4.875C4.01305 19.9062 3.1864 19.5638 2.5769 18.9543C1.96741 18.3449 1.625 17.5182 1.625 16.6562V6.90625C1.625 6.69076 1.7106 6.4841 1.86298 6.33173C2.01535 6.17935 2.22201 6.09375 2.4375 6.09375V6.09375Z" stroke="black" stroke-width="2" stroke-linecap="round" stroke-linejoin="round"/>
<path d="M18.6875 11.375L24.375 8.125V17.875L18.6875 14.625" stroke="black" stroke-width="2" stroke-linecap="round" stroke-linejoin="round"/>
</svg>
